<svg width="33" height="33" viewBox="0 0 33 33" fill="none" xmlns="http://www.w3.org/2000/svg">
<path d="M13.75 28.875H19.25V32.04C19.25 32.5702 18.8202 33 18.29 33H14.71C14.1798 33 13.75 32.5702 13.75 32.04V28.875Z" fill="#B7B1A9"/>
<path fill-rule="evenodd" clip-rule="evenodd" d="M16.5 6.875C10.4348 6.875 5.5 11.7437 5.5 17.7277C5.5 22.4528 8.59862 26.6068 13.1154 28.0427V29.4152C13.1154 29.876 13.4945 30.25 13.9615 30.25H19.0385C19.5055 30.25 19.8846 29.876 19.8846 29.4152V28.0427C24.4014 26.6052 27.5 22.4528 27.5 17.7277C27.5 11.7437 22.5652 6.875 16.5 6.875Z" fill="#FFA733"/>
<path fill-rule="evenodd" clip-rule="evenodd" d="M17.875 31.625H15.125C14.366 31.625 13.75 31.933 13.75 32.3125C13.75 32.692 14.366 33 15.125 33H17.875C18.634 33 19.25 32.692 19.25 32.3125C19.25 31.933 18.634 31.625 17.875 31.625Z" fill="#59514B"/>
<path fill-rule="evenodd" clip-rule="evenodd" d="M19.5938 28.875H13.4062C12.837 28.875 12.375 29.183 12.375 29.5625C12.375 29.942 12.837 30.25 13.4062 30.25H19.5938C20.163 30.25 20.625 29.942 20.625 29.5625C20.625 29.183 20.163 28.875 19.5938 28.875Z" fill="#59514B"/>
<path fill-rule="evenodd" clip-rule="evenodd" d="M16.5 5.5C16.896 5.5 17.2174 5.08933 17.2174 4.58333V0.916667C17.2174 0.410667 16.896 0 16.5 0C16.104 0 15.7826 0.410667 15.7826 0.916667V4.58333C15.7826 5.08933 16.104 5.5 16.5 5.5Z" fill="#FFA733"/>
<path fill-rule="evenodd" clip-rule="evenodd" d="M32.2826 15.7552H29.4131C29.0171 15.7552 28.6957 16.0632 28.6957 16.4427C28.6957 16.8222 29.0171 17.1302 29.4131 17.1302H32.2826C32.6786 17.1302 33 16.8222 33 16.4427C33 16.0632 32.6786 15.7552 32.2826 15.7552Z" fill="#FFA733"/>
<path fill-rule="evenodd" clip-rule="evenodd" d="M3.58696 15.7552H0.717391C0.321391 15.7552 0 16.0632 0 16.4427C0 16.8222 0.321391 17.1302 0.717391 17.1302H3.58696C3.98296 17.1302 4.30435 16.8222 4.30435 16.4427C4.30435 16.0632 3.98296 15.7552 3.58696 15.7552Z" fill="#FFA733"/>
<path fill-rule="evenodd" clip-rule="evenodd" d="M7.43209 8.05705C7.56723 8.18656 7.74373 8.25 7.92024 8.25C8.09536 8.25 8.27186 8.18656 8.407 8.05705C8.67589 7.79934 8.67589 7.3804 8.407 7.12269L5.4809 4.31828C5.21201 4.06057 4.77488 4.06057 4.50599 4.31828C4.2371 4.57599 4.2371 4.99493 4.50599 5.25264L7.43209 8.05705Z" fill="#FFA733"/>
<path fill-rule="evenodd" clip-rule="evenodd" d="M25.0809 8.25C25.2574 8.25 25.4338 8.18526 25.5689 8.05711L28.4941 5.25228C28.7629 4.99466 28.7629 4.57717 28.4941 4.31822C28.2239 4.06059 27.7883 4.06059 27.5195 4.31822L24.593 7.12173C24.3242 7.38068 24.3242 7.79816 24.593 8.05711C24.7281 8.18526 24.9045 8.25 25.0809 8.25Z" fill="#FFA733"/>
</svg>
